<svg width="66" height="58" viewBox="0 0 66 58" fill="none" xmlns="http://www.w3.org/2000/svg">
<path d="M36.8 50.08C33.12 55.3067 27.92 57.92 21.2 57.92C14.48 57.92 9.25333 55.3067 5.52 50.08C1.84 44.8 5.96046e-08 37.76 5.96046e-08 28.96C5.96046e-08 20.16 1.84 13.1467 5.52 7.92002C9.25333 2.64002 14.48 2.09808e-05 21.2 2.09808e-05C27.92 2.09808e-05 33.12 2.64002 36.8 7.92002C40.5333 13.1467 42.4 20.16 42.4 28.96C42.4 37.76 40.5333 44.8 36.8 50.08ZM9.68 46.32C12.4533 50.4267 16.2933 52.48 21.2 52.48C26.1067 52.48 29.92 50.4267 32.64 46.32C35.4133 42.2134 36.8 36.4267 36.8 28.96C36.8 21.4934 35.4133 15.7067 32.64 11.6C29.92 7.49335 26.1067 5.44002 21.2 5.44002C16.2933 5.44002 12.4533 7.49335 9.68 11.6C6.96 15.7067 5.6 21.4934 5.6 28.96C5.6 36.4267 6.96 42.2134 9.68 46.32ZM60.8281 0.960018H65.6281V56.96H60.0281V7.12002L47.4681 10.88L46.0281 6.08002L60.8281 0.960018Z" fill="#01CD7D"/>
</svg>
