<svg width="85" height="58" viewBox="0 0 85 58" fill="none" xmlns="http://www.w3.org/2000/svg">
<path d="M36.8 50.08C33.12 55.3066 27.92 57.92 21.2 57.92C14.48 57.92 9.25333 55.3066 5.52 50.08C1.84 44.8 5.96046e-08 37.76 5.96046e-08 28.96C5.96046e-08 20.16 1.84 13.1466 5.52 7.91996C9.25333 2.63996 14.48 -4.00543e-05 21.2 -4.00543e-05C27.92 -4.00543e-05 33.12 2.63996 36.8 7.91996C40.5333 13.1466 42.4 20.16 42.4 28.96C42.4 37.76 40.5333 44.8 36.8 50.08ZM9.68 46.32C12.4533 50.4266 16.2933 52.48 21.2 52.48C26.1067 52.48 29.92 50.4266 32.64 46.32C35.4133 42.2133 36.8 36.4266 36.8 28.96C36.8 21.4933 35.4133 15.7066 32.64 11.6C29.92 7.49329 26.1067 5.43996 21.2 5.43996C16.2933 5.43996 12.4533 7.49329 9.68 11.6C6.96 15.7066 5.6 21.4933 5.6 28.96C5.6 36.4266 6.96 42.2133 9.68 46.32ZM48.8094 56.96V51.92L68.9694 31.6C74.7294 25.84 77.6094 20.9066 77.6094 16.8C77.6094 13.2266 76.4894 10.4533 74.2494 8.47996C72.0627 6.45329 69.4227 5.43996 66.3294 5.43996C60.5694 5.43996 56.3827 8.07996 53.7694 13.36L49.0494 10.56C50.8094 7.09329 53.2094 4.47996 56.2494 2.71996C59.2894 0.906626 62.6494 -4.00543e-05 66.3294 -4.00543e-05C70.8094 -4.00543e-05 74.7294 1.51996 78.0894 4.55996C81.5027 7.54662 83.2094 11.6266 83.2094 16.8C83.2094 20.0533 82.3027 23.1733 80.4894 26.16C78.676 29.1466 76.116 32.2933 72.8094 35.6L56.8094 51.52H84.4094V56.96H48.8094Z" fill="#01CD7D"/>
</svg>
