<svg width="85" height="58" viewBox="0 0 85 58" fill="none" xmlns="http://www.w3.org/2000/svg">
<path d="M36.8 50.08C33.12 55.3066 27.92 57.92 21.2 57.92C14.48 57.92 9.25333 55.3066 5.52 50.08C1.84 44.8 5.96046e-08 37.76 5.96046e-08 28.96C5.96046e-08 20.16 1.84 13.1466 5.52 7.91996C9.25333 2.63996 14.48 -4.00543e-05 21.2 -4.00543e-05C27.92 -4.00543e-05 33.12 2.63996 36.8 7.91996C40.5333 13.1466 42.4 20.16 42.4 28.96C42.4 37.76 40.5333 44.8 36.8 50.08ZM9.68 46.32C12.4533 50.4266 16.2933 52.48 21.2 52.48C26.1067 52.48 29.92 50.4266 32.64 46.32C35.4133 42.2133 36.8 36.4266 36.8 28.96C36.8 21.4933 35.4133 15.7066 32.64 11.6C29.92 7.49329 26.1067 5.43996 21.2 5.43996C16.2933 5.43996 12.4533 7.49329 9.68 11.6C6.96 15.7066 5.6 21.4933 5.6 28.96C5.6 36.4266 6.96 42.2133 9.68 46.32ZM68.5881 24.24C73.0681 24.8266 76.7481 26.56 79.6281 29.44C82.5615 32.2666 84.0281 36.0266 84.0281 40.72C84.0281 46.0533 82.1881 50.2666 78.5081 53.36C74.8815 56.4 70.4548 57.92 65.2281 57.92C61.0681 57.92 57.3615 56.96 54.1081 55.04C50.8548 53.12 48.5615 50.3733 47.2281 46.8L51.8681 44.08C52.7748 46.8533 54.4015 48.96 56.7481 50.4C59.0948 51.7866 61.9215 52.48 65.2281 52.48C69.0681 52.48 72.2148 51.4666 74.6681 49.44C77.1748 47.36 78.4281 44.4533 78.4281 40.72C78.4281 36.9866 77.1748 34.1066 74.6681 32.08C72.2148 30 69.0681 28.96 65.2281 28.96V28.88L65.1481 28.96H63.6281L61.2281 25.28L75.1481 6.23996H48.8281V0.959957H81.6281V6.23996L68.5881 24.24Z" fill="#01CD7D"/>
</svg>
