<svg width="91" height="58" viewBox="0 0 91 58" fill="none" xmlns="http://www.w3.org/2000/svg">
<path d="M36.8 50.08C33.12 55.3066 27.92 57.92 21.2 57.92C14.48 57.92 9.25333 55.3066 5.52 50.08C1.84 44.8 5.96046e-08 37.76 5.96046e-08 28.96C5.96046e-08 20.16 1.84 13.1466 5.52 7.91996C9.25333 2.63996 14.48 -4.00543e-05 21.2 -4.00543e-05C27.92 -4.00543e-05 33.12 2.63996 36.8 7.91996C40.5333 13.1466 42.4 20.16 42.4 28.96C42.4 37.76 40.5333 44.8 36.8 50.08ZM9.68 46.32C12.4533 50.4266 16.2933 52.48 21.2 52.48C26.1067 52.48 29.92 50.4266 32.64 46.32C35.4133 42.2133 36.8 36.4266 36.8 28.96C36.8 21.4933 35.4133 15.7066 32.64 11.6C29.92 7.49329 26.1067 5.43996 21.2 5.43996C16.2933 5.43996 12.4533 7.49329 9.68 11.6C6.96 15.7066 5.6 21.4933 5.6 28.96C5.6 36.4266 6.96 42.2133 9.68 46.32ZM90.7906 40.48V45.76H83.5906V56.96H77.9906V45.76H48.3906V40.48L69.1906 0.959957H75.3506L54.5506 40.48H77.9906V23.36H83.5906V40.48H90.7906Z" fill="#01CD7D"/>
</svg>
