<svg width="87" height="58" viewBox="0 0 87 58" fill="none" xmlns="http://www.w3.org/2000/svg">
<path d="M36.8 50.08C33.12 55.3066 27.92 57.92 21.2 57.92C14.48 57.92 9.25333 55.3066 5.52 50.08C1.84 44.8 5.96046e-08 37.76 5.96046e-08 28.96C5.96046e-08 20.16 1.84 13.1466 5.52 7.91996C9.25333 2.63996 14.48 -4.00543e-05 21.2 -4.00543e-05C27.92 -4.00543e-05 33.12 2.63996 36.8 7.91996C40.5333 13.1466 42.4 20.16 42.4 28.96C42.4 37.76 40.5333 44.8 36.8 50.08ZM9.68 46.32C12.4533 50.4266 16.2933 52.48 21.2 52.48C26.1067 52.48 29.92 50.4266 32.64 46.32C35.4133 42.2133 36.8 36.4266 36.8 28.96C36.8 21.4933 35.4133 15.7066 32.64 11.6C29.92 7.49329 26.1067 5.43996 21.2 5.43996C16.2933 5.43996 12.4533 7.49329 9.68 11.6C6.96 15.7066 5.6 21.4933 5.6 28.96C5.6 36.4266 6.96 42.2133 9.68 46.32ZM67.5906 23.52C72.8173 23.52 77.244 25.0666 80.8706 28.16C84.5506 31.2 86.3906 35.3866 86.3906 40.72C86.3906 46.0533 84.5506 50.2666 80.8706 53.36C77.244 56.4 72.8173 57.92 67.5906 57.92C63.3773 57.92 59.6173 56.9066 56.3106 54.88C53.004 52.8 50.764 49.84 49.5906 46L54.3106 43.28C55.1106 46.2666 56.684 48.56 59.0306 50.16C61.4306 51.7066 64.284 52.48 67.5906 52.48C71.4306 52.48 74.5773 51.4666 77.0306 49.44C79.5373 47.36 80.7906 44.4533 80.7906 40.72C80.7906 36.9866 79.5373 34.1066 77.0306 32.08C74.5773 30 71.4306 28.96 67.5906 28.96H52.3906L54.3906 0.959957H84.3906V6.23996H59.3506L58.1506 23.52H67.5906Z" fill="#01CD7D"/>
</svg>
